<?xml version="1.0" encoding="UTF-8" standalone="no"?><!DOCTYPE svg PUBLIC "-//W3C//DTD SVG 1.1//EN" "http://www.w3.org/Graphics/SVG/1.1/DTD/svg11.dtd"><svg width="100%" height="100%" viewBox="0 0 2260 2260" version="1.1" xmlns="http://www.w3.org/2000/svg" xmlns:xlink="http://www.w3.org/1999/xlink" xml:space="preserve" xmlns:serif="http://www.serif.com/" style="fill-rule:evenodd;clip-rule:evenodd;stroke-linejoin:round;stroke-miterlimit:2;"><rect id="circles---round-logo---FINAL" serif:id="circles - round logo - FINAL" x="-0" y="0" width="2260" height="2260" style="fill:none;"/><g><circle cx="1130" cy="1130" r="1125.13" style="fill:#484848;"/><path d="M1130,4.871c620.975,0 1125.13,504.154 1125.13,1125.13c-0,620.975 -504.154,1125.13 -1125.13,1125.13c-620.975,-0 -1125.13,-504.154 -1125.13,-1125.13c0,-620.975 504.154,-1125.13 1125.13,-1125.13Zm-125.13,375.004c-482.925,0 -874.999,392.074 -874.999,874.998c0,482.925 392.074,874.998 874.999,874.998c482.924,0 874.998,-392.073 874.998,-874.998c-0,-482.924 -392.074,-874.998 -874.998,-874.998Z" style="fill:#8ddaff;"/><path d="M855.145,754.325c345.097,0 625.273,280.176 625.273,625.273c-0,345.098 -280.176,625.273 -625.273,625.273c-345.098,0 -625.274,-280.175 -625.274,-625.273c0,-345.097 280.176,-625.273 625.274,-625.273Zm-150.024,400.046c-207.106,0 -375.25,168.144 -375.25,375.25c0,207.107 168.144,375.25 375.25,375.25c207.107,0 375.25,-168.143 375.25,-375.25c0,-207.106 -168.143,-375.25 -375.25,-375.25Z" style="fill:#8ddaff;"/><circle cx="629.871" cy="1604.87" r="250" style="fill:#f4f4f4;"/></g></svg>